<svg xmlns="http://www.w3.org/2000/svg" viewBox="0 0 760 360" width="760" height="360">
  <defs>
    <pattern id="sl" x="0" y="0" width="760" height="4" patternUnits="userSpaceOnUse">
      <rect width="760" height="1" fill="rgba(0,0,0,0.08)"/>
    </pattern>
    <style>
  .m { font-family: monospace; }

  @keyframes borderFlow {
    from { stroke-dashoffset: 0; }
    to   { stroke-dashoffset: -24; }
  }

  .border-run {
    stroke-dasharray: 8 4;
    animation: borderFlow 1s linear infinite;
  }

  /* OPTIONAL glow (GitHub-safe mild version) */
  .glow-mid {
    filter: drop-shadow(0 0 3px #f5c84288);
  }
</style>
  </defs>

  <!-- body — open bottom so it flows into next SVG -->
  <rect width="760" height="360" rx="12" ry="12" fill="#0d0d16"/>
  <!-- open bottom: cover bottom-radius with a flush rect -->
  <rect x="0" y="340" width="760" height="20" fill="#0d0d16"/>

  <!-- top marching border -->
 <!-- smooth continuous border (open bottom) -->
<path
  d="
    M12 0
    H748
    A12 12 0 0 1 760 12
    V360
    M0 360
    V12
    A12 12 0 0 1 12 0
  "
  fill="none"
  stroke="#f5c842"
  stroke-width="1.5"
/>

<!-- animated top stroke only -->
<path
  d="
    M12 0
    H748
    A12 12 0 0 1 760 12
  "
  fill="none"
  stroke="#f5c842"
  stroke-width="1.5"
  stroke-dasharray="8 4"
  class="top-march"
/>

  <path d="M12 0 H748 A12 12 0 0 1 760 12 V348 A12 12 0 0 1 748 360 H12 A12 12 0 0 1 0 348 V12 A12 12 0 0 1 12 0"
      fill="none"
      stroke="#f5c842"
      stroke-width="1.5"
      class="border-run"/>
  <!-- left + right solid sides, cover dash on sides -->
  <line x1="0" y1="12" x2="0" y2="360" stroke="#f5c842" stroke-width="1.5"/>
  <line x1="760" y1="12" x2="760" y2="360" stroke="#f5c842" stroke-width="1.5"/>
  <!-- top solid border over dash -->
  <line x1="12" y1="0" x2="748" y2="0" stroke="#f5c842" stroke-width="1.5"/>

  <!-- traffic lights -->
  <circle cx="30" cy="22" r="5" fill="#ff5f57"/>
  <circle cx="50" cy="22" r="5" fill="#febc2e"/>
  <circle cx="70" cy="22" r="5" fill="#28c840"/>
  <text x="380" y="26" text-anchor="middle" class="m mid" style="font-size:11px">naveen@dev: ~/about  —  zsh</text>
  <line x1="0" y1="36" x2="760" y2="36" stroke="#f5c842" stroke-width=".5" opacity=".25"/>

  <!-- scanlines -->
  <rect x="0" y="0" width="760" height="360" fill="url(#sl)"/>

  <!-- content -->
  <text x="32" y="64" class="m l1"><tspan class="dim">$ </tspan><tspan class="bright">whoami</tspan></text>
  <text x="32" y="90"  class="m l2 dim" style="font-size:14px">&#x250C;&#x2500;&#x2500;&#x2500;&#x2500;&#x2500;&#x2500;&#x2500;&#x2500;&#x2500;&#x2500;&#x2500;&#x2500;&#x2500;&#x2500;&#x2500;&#x2500;&#x2500;&#x2500;&#x2500;&#x2500;&#x2500;&#x2500;&#x2500;&#x2500;&#x2500;&#x2500;&#x2500;&#x2500;&#x2500;&#x2500;&#x2500;&#x2500;&#x2500;&#x2500;&#x2500;&#x2500;&#x2500;&#x2500;&#x2500;&#x2500;&#x2500;&#x2500;&#x2500;&#x2500;&#x2500;&#x2500;&#x2500;&#x2500;&#x2500;&#x2500;&#x2500;&#x2500;&#x2500;&#x2500;&#x2500;&#x2500;&#x2500;&#x2500;&#x2500;</text>
  <text x="32" y="114" class="m l3" style="font-size:14px"><tspan class="dim">&#x2502;  </tspan><tspan class="bright">&#9658; </tspan><tspan class="gold">Naveen B  //  Full Stack Developer</tspan></text>
  <text x="32" y="138" class="m l4" style="font-size:14px"><tspan class="dim">&#x2502;  </tspan><tspan class="bright">&#9658; </tspan><tspan class="gold">B.E. CSE — Class of 2025  ·  Chennai, India</tspan></text>
  <text x="32" y="162" class="m l5" style="font-size:14px"><tspan class="dim">&#x2502;  </tspan><tspan class="bright">&#9658; </tspan><tspan class="gold">Building full stack apps · growing into the cloud</tspan></text>
  <text x="32" y="186" class="m l6" style="font-size:14px"><tspan class="dim">&#x2502;  </tspan><tspan class="bright">&#9658; </tspan><tspan class="gold">Currently learning: C# · ASP.NET · Azure</tspan></text>
  <text x="32" y="210" class="m l7" style="font-size:14px"><tspan class="dim">&#x2502;  </tspan><tspan class="bright">&#9658; </tspan><tspan class="gold">Also ships browser games for fun</tspan></text>
  <text x="32" y="234" class="m l8 dim" style="font-size:14px">&#x2514;&#x2500;&#x2500;&#x2500;&#x2500;&#x2500;&#x2500;&#x2500;&#x2500;&#x2500;&#x2500;&#x2500;&#x2500;&#x2500;&#x2500;&#x2500;&#x2500;&#x2500;&#x2500;&#x2500;&#x2500;&#x2500;&#x2500;&#x2500;&#x2500;&#x2500;&#x2500;&#x2500;&#x2500;&#x2500;&#x2500;&#x2500;&#x2500;&#x2500;&#x2500;&#x2500;&#x2500;&#x2500;&#x2500;&#x2500;&#x2500;&#x2500;&#x2500;&#x2500;&#x2500;&#x2500;&#x2500;&#x2500;&#x2500;&#x2500;&#x2500;&#x2500;&#x2500;&#x2500;&#x2500;&#x2500;&#x2500;&#x2500;&#x2500;&#x2500;</text>

  <!-- quote -->
  <text x="32" y="274" class="m l8" style="font-size:12px;animation-delay:5.6s"><tspan class="dim">"</tspan><tspan class="mid">First, solve the problem. Then, write the code.</tspan><tspan class="dim">"  — John Johnson</tspan></text>

  <!-- prompt cursor -->
  <text x="32" y="320" class="m cur" style="font-size:14px"><tspan class="dim">$ </tspan><tspan class="bright">&#9608;</tspan></text>
</svg>
